<?xml version="1.0" encoding="utf-8"?>
<!-- Generator: Adobe Illustrator 25.4.1, SVG Export Plug-In . SVG Version: 6.00 Build 0)  -->
<svg version="1.1" id="Слой_1" xmlns="http://www.w3.org/2000/svg" xmlns:xlink="http://www.w3.org/1999/xlink" x="0px" y="0px"
	 viewBox="0 0 227.1 58.3" style="enable-background:new 0 0 227.1 58.3;" xml:space="preserve">
<style type="text/css">
	.st0{fill:#FFFFFF;}
	.st1{fill:#317DBF;}
	.st2{fill:#3D497E;}
</style>
<g>
	<g>
		<polygon class="st0" points="43.9,22.7 58.1,8.5 58.1,8.5 51,1.4 36.9,1.4 29.8,8.5 29.8,8.5 		"/>
		<path class="st1" d="M43.9,24.7L27.8,8.5L36.3,0h15.3l8.5,8.5L43.9,24.7z M31.8,8.5l12.2,12.2L56.1,8.5l-5.7-5.7h-13L31.8,8.5z"/>
	</g>
	<g>
		<rect x="29.8" y="7.1" class="st1" width="28.3" height="2.8"/>
	</g>
	<g>
		<rect x="42.5" y="3.5" transform="matrix(0.7071 -0.7071 0.7071 0.7071 10.3988 35.0263)" class="st1" width="10" height="2.8"/>
	</g>
	<g>
		<polygon class="st1" points="45.4,22.7 42.5,22.7 42.5,9.1 35.8,2.4 37.9,0.4 45.4,7.9 		"/>
	</g>
	<g>
		<path class="st2" d="M58.1,43.9H15.6l-7.1-7.1V15.6h7.1l14.2,14.2c1.9,1.9,2.5,4.7,1.8,7.1H51C54.9,36.8,58.1,40,58.1,43.9z"/>
		<path class="st1" d="M59.5,45.4H15l-7.9-7.9V14.2h9.1l14.6,14.6c1.8,1.8,2.7,4.2,2.5,6.7H51c4.7,0,8.5,3.8,8.5,8.5V45.4z
			 M16.2,42.5h40.3c-0.6-2.4-2.9-4.3-5.5-4.3H29.6l0.6-1.8c0.6-2,0.1-4.2-1.4-5.7L15,17H9.9v19.3L16.2,42.5z"/>
	</g>
	<g>
		<path class="st2" d="M31.5,36.8c0.7-2.4,0.2-5.2-1.8-7.1h7.1c3.9,0,7.1,3.2,7.1,7.1H31.5z"/>
		<path class="st1" d="M45.4,38.3H29.6l0.6-1.8c0.6-2,0.1-4.2-1.4-5.7l-2.4-2.4h10.5c4.7,0,8.5,3.8,8.5,8.5V38.3z M33.2,35.4h9.1
			c-0.6-2.4-2.9-4.3-5.5-4.3h-4.4C33.1,32.5,33.3,34,33.2,35.4z"/>
	</g>
	<g>
		<path class="st1" d="M29.4,42L18.1,30.8l2-2l9.3,9.3c0.3-0.5,0.6-1,0.8-1.6l2.7,0.8c-0.4,1.3-1.1,2.5-2.1,3.5
			c-0.1,0.1-0.3,0.2-0.4,0.4L29.4,42z"/>
	</g>
	<g>
		<rect x="1.4" y="15.6" class="st0" width="7.1" height="21.3"/>
		<path class="st1" d="M9.9,38.3H0V14.2h9.9V38.3z M2.8,35.4h4.3V17H2.8V35.4z"/>
	</g>
</g>
<g>
	<g>
		<path class="st2" d="M72,12.4v13.2h3.5v3.1H72v16.6h-4.1V9h8.6v3.4H72z"/>
		<path class="st2" d="M82,12.4v13.2h3.5v3.1H82v13.2h4.8v3.4H78V9h8.6v3.4H82z"/>
		<path class="st2" d="M88.3,45.4V9h5.8c0.6,0,1.2,0.1,1.8,0.3c0.6,0.2,1.1,0.5,1.6,0.9c0.5,0.4,0.8,0.9,1.1,1.6
			c0.3,0.6,0.4,1.4,0.4,2.4v26.1c0,0.9-0.1,1.7-0.4,2.4c-0.3,0.6-0.6,1.2-1.1,1.6c-0.5,0.4-1,0.7-1.6,0.9c-0.6,0.2-1.2,0.3-1.8,0.3
			H88.3z M92.4,12.4v29.5h1.5c0.3,0,0.6-0.2,0.8-0.5c0.2-0.3,0.3-0.9,0.3-1.8V14.8c0-0.9-0.1-1.5-0.3-1.8c-0.2-0.3-0.5-0.5-0.8-0.5
			H92.4z"/>
		<path class="st2" d="M105.7,45.7c-0.6,0-1.2-0.1-1.8-0.3c-0.6-0.2-1.1-0.5-1.6-0.9s-0.8-1-1.1-1.6c-0.3-0.7-0.4-1.5-0.4-2.4V13.9
			c0-0.9,0.1-1.7,0.4-2.4s0.7-1.2,1.1-1.6s1-0.7,1.6-0.9c0.6-0.2,1.2-0.3,1.8-0.3h0.9c0.6,0,1.2,0.1,1.8,0.3
			c0.6,0.2,1.1,0.5,1.6,0.9s0.8,1,1.1,1.6c0.3,0.7,0.4,1.5,0.4,2.4v26.5c0,0.9-0.1,1.7-0.4,2.4c-0.3,0.7-0.7,1.2-1.1,1.6
			s-1,0.7-1.6,0.9c-0.6,0.2-1.2,0.3-1.8,0.3H105.7z M106.1,12.1c-0.8,0-1.2,0.8-1.2,2.4v25.2c0,0.9,0.1,1.5,0.3,1.9
			c0.2,0.4,0.5,0.5,0.9,0.5h0.2c0.4,0,0.7-0.2,0.9-0.5s0.3-1,0.3-1.9V14.6c0-1.6-0.4-2.4-1.2-2.4H106.1z"/>
		<path class="st2" d="M124.1,23.7c0,1.1-0.2,1.9-0.5,2.5c-0.3,0.5-0.8,0.9-1.3,1.1c0.5,0.1,0.9,0.5,1.3,1c0.3,0.5,0.5,1.4,0.5,2.5
			v8.2c0,1.2,0,2.2,0.1,3c0.1,0.8,0.1,1.4,0.2,2c0.1,0.5,0.1,0.9,0.2,1.1c0.1,0.2,0.1,0.4,0.2,0.5h-4.1c-0.2-0.4-0.4-1.1-0.5-2.2
			c-0.1-1-0.1-2.5-0.1-4.3v-7.8c0-1.6-0.3-2.3-1-2.3h-1.6v16.6h-4.1V9h5.9c1.3,0,2.5,0.5,3.4,1.4s1.4,2.2,1.4,3.8V23.7z M119,25.7
			c0.7,0,1-0.8,1-2.3v-8.6c0-1.6-0.4-2.4-1.2-2.4h-1.4v13.3H119z"/>
		<path class="st2" d="M131.1,45.7c-0.6,0-1.2-0.1-1.8-0.3c-0.6-0.2-1.1-0.5-1.6-0.9s-0.8-1-1.1-1.6c-0.3-0.7-0.4-1.5-0.4-2.4V13.9
			c0-0.9,0.1-1.7,0.4-2.4s0.7-1.2,1.1-1.6s1-0.7,1.6-0.9c0.6-0.2,1.2-0.3,1.8-0.3h0.9c0.6,0,1.2,0.1,1.8,0.3
			c0.6,0.2,1.1,0.5,1.6,0.9s0.8,1,1.1,1.6c0.3,0.7,0.4,1.5,0.4,2.4v26.5c0,0.9-0.1,1.7-0.4,2.4c-0.3,0.7-0.7,1.2-1.1,1.6
			s-1,0.7-1.6,0.9c-0.6,0.2-1.2,0.3-1.8,0.3H131.1z M131.5,12.1c-0.8,0-1.2,0.8-1.2,2.4v25.2c0,0.9,0.1,1.5,0.3,1.9
			c0.2,0.4,0.5,0.5,0.9,0.5h0.2c0.4,0,0.7-0.2,0.9-0.5s0.3-1,0.3-1.9V14.6c0-1.6-0.4-2.4-1.2-2.4H131.5z"/>
		<path class="st2" d="M146.2,9h3.5l-3.3,36.3h-5.2L137.9,9h3.9l2.1,25.2h0.2L146.2,9z"/>
		<path class="st2" d="M161.6,45.7c-0.6,0-1.2-0.1-1.8-0.3c-0.6-0.2-1.1-0.5-1.6-0.9s-0.8-1-1.1-1.6c-0.3-0.7-0.4-1.5-0.4-2.4V13.9
			c0-0.9,0.1-1.7,0.4-2.4s0.7-1.2,1.1-1.6s1-0.7,1.6-0.9c0.6-0.2,1.2-0.3,1.8-0.3h0.9c0.6,0,1.2,0.1,1.8,0.3
			c0.6,0.2,1.1,0.5,1.6,0.9s0.8,1,1.1,1.6c0.3,0.7,0.4,1.5,0.4,2.4v9.7h-4.1v-9.2c0-0.9-0.1-1.5-0.3-1.9s-0.5-0.5-0.9-0.5H162
			c-0.4,0-0.7,0.2-0.9,0.5c-0.2,0.4-0.3,1-0.3,1.9v25.2c0,0.9,0.1,1.5,0.3,1.9c0.2,0.4,0.5,0.5,0.9,0.5h0.2c0.4,0,0.7-0.2,0.9-0.5
			s0.3-1,0.3-1.9v-9.2h4.1v9.8c0,0.9-0.1,1.7-0.4,2.4c-0.3,0.7-0.7,1.2-1.1,1.6s-1,0.7-1.6,0.9c-0.6,0.2-1.2,0.3-1.8,0.3H161.6z"/>
		<path class="st2" d="M173.3,12.4v13.2h3.5v3.1h-3.5v13.2h4.8v3.4h-8.9V9h8.6v3.4H173.3z"/>
		<path class="st2" d="M187.4,45.4L183,21.6h-0.1v23.8h-3.4V9h4.6l4.1,23.3V9h3.7v36.3H187.4z"/>
		<path class="st2" d="M204.1,12.4h-3.5v32.9h-4.1V12.4H193V9h11.1V12.4z"/>
		<path class="st2" d="M209.4,12.4v13.2h3.5v3.1h-3.5v13.2h4.8v3.4h-8.9V9h8.6v3.4H209.4z"/>
		<path class="st2" d="M226.4,23.7c0,1.1-0.2,1.9-0.5,2.5c-0.3,0.5-0.8,0.9-1.3,1.1c0.5,0.1,0.9,0.5,1.3,1c0.3,0.5,0.5,1.4,0.5,2.5
			v8.2c0,1.2,0,2.2,0.1,3c0.1,0.8,0.1,1.4,0.2,2c0.1,0.5,0.1,0.9,0.2,1.1c0.1,0.2,0.1,0.4,0.2,0.5H223c-0.2-0.4-0.4-1.1-0.5-2.2
			c-0.1-1-0.1-2.5-0.1-4.3v-7.8c0-1.6-0.3-2.3-1-2.3h-1.6v16.6h-4.1V9h5.9c1.3,0,2.5,0.5,3.4,1.4c1,0.9,1.4,2.2,1.4,3.8V23.7z
			 M221.3,25.7c0.7,0,1-0.8,1-2.3v-8.6c0-1.6-0.4-2.4-1.2-2.4h-1.4v13.3H221.3z"/>
	</g>
</g>
<g>
	<path class="st1" d="M2.3,53L3.4,48h0.8l-1.6,7.1c-0.1,0.5-0.3,0.8-0.5,1.1s-0.6,0.3-1,0.3c-0.2,0-0.4,0-0.6-0.1v-0.8
		c0.2,0.1,0.3,0.1,0.5,0.1c0.2,0,0.4,0,0.5-0.1c0.1-0.1,0.2-0.3,0.3-0.5l0.1-0.5L0.2,48h0.9L2.3,53z"/>
	<path class="st1" d="M6.7,52.1v-1.7h0.8v6H6.7v-2.9c-0.3,0.4-0.6,0.7-1.1,0.7c-0.9,0-1.3-0.6-1.3-1.8v-2.1h0.9v2
		c0,0.7,0.2,1.1,0.7,1.1c0.3,0,0.5-0.1,0.6-0.4S6.7,52.5,6.7,52.1z"/>
	<path class="st1" d="M9.8,50.3c0.5,0,1,0.2,1.2,0.5s0.4,0.8,0.4,1.4v1.3H9v1.1c0,0.7,0.3,1.1,0.8,1.1c0.6,0,0.8-0.4,0.8-1.1v-0.2
		h0.8v0.1c0,0.6-0.1,1.1-0.4,1.4s-0.7,0.5-1.2,0.5c-0.5,0-1-0.2-1.2-0.5c-0.3-0.3-0.4-0.8-0.4-1.4v-2.4c0-0.6,0.1-1.1,0.4-1.4
		C8.9,50.5,9.3,50.3,9.8,50.3z M9,52.2v0.7h1.7v-0.7c0-0.7-0.3-1.1-0.8-1.1C9.3,51.1,9,51.4,9,52.2z"/>
	<path class="st1" d="M14.1,50.6c0.9,0,1.3,0.6,1.3,1.7v2.3c0,0.6-0.1,1.1-0.4,1.4c-0.3,0.3-0.7,0.5-1.2,0.5c-0.5,0-0.9-0.2-1.2-0.5
		c-0.3-0.3-0.4-0.8-0.4-1.4v-3.3c0-0.6,0.1-1.2,0.3-1.6c0.1-0.2,0.2-0.3,0.4-0.5c0.2-0.1,0.3-0.3,0.5-0.3c0.1-0.1,0.3-0.2,0.6-0.3
		c0.5-0.2,0.9-0.4,1.1-0.6v0.9c-0.2,0.2-0.5,0.3-0.9,0.5c-0.3,0.1-0.6,0.3-0.8,0.5c-0.2,0.2-0.3,0.6-0.3,1.1v0.3
		C13.2,50.8,13.5,50.6,14.1,50.6z M14.5,54.7v-2.3c0-0.7-0.2-1-0.7-1c-0.3,0-0.5,0.1-0.7,0.4c-0.2,0.2-0.2,0.6-0.2,1v2
		c0,0.7,0.3,1.1,0.8,1.1C14.3,55.8,14.5,55.4,14.5,54.7z"/>
	<path class="st1" d="M18.5,52.9v-2.5h0.8v6h-0.8v-2.8h-1.6v2.8H16v-6h0.8v2.5H18.5z"/>
	<path class="st1" d="M20.1,56.4v-6h0.8v2.3h0.8c1.2,0,1.8,0.6,1.8,1.9c0,1.3-0.6,1.9-1.8,1.9H20.1z M21.8,53.5h-0.8v2.1h0.8
		c0.3,0,0.6-0.1,0.7-0.2c0.1-0.2,0.2-0.4,0.2-0.8c0-0.4-0.1-0.6-0.2-0.8C22.3,53.6,22.1,53.5,21.8,53.5z M25.2,56.4h-0.8v-6h0.8
		V56.4z"/>
	<path class="st1" d="M26.7,54.8l1.7-4.4h0.9v6h-0.8v-4.4l-1.7,4.4h-0.9v-6h0.8V54.8z M26.4,48.3H27c0,0.4,0.3,0.6,0.6,0.6
		c0.4,0,0.6-0.2,0.6-0.6h0.5c0,0.4-0.1,0.7-0.3,0.9s-0.5,0.3-0.9,0.3c-0.4,0-0.6-0.1-0.9-0.3C26.6,49,26.4,48.7,26.4,48.3z"/>
	<path class="st1" d="M35.4,57.6h-0.9v-1.1h-3.1v-6h0.8v5.3H34v-5.3h0.9v5.3h0.6V57.6z"/>
	<path class="st1" d="M37.4,50.3c0.5,0,1,0.2,1.2,0.5s0.4,0.8,0.4,1.4v1.3h-2.5v1.1c0,0.7,0.3,1.1,0.8,1.1c0.6,0,0.8-0.4,0.8-1.1
		v-0.2h0.8v0.1c0,0.6-0.1,1.1-0.4,1.4s-0.7,0.5-1.2,0.5c-0.5,0-1-0.2-1.2-0.5c-0.3-0.3-0.4-0.8-0.4-1.4v-2.4c0-0.6,0.1-1.1,0.4-1.4
		C36.4,50.5,36.9,50.3,37.4,50.3z M36.6,52.2v0.7h1.7v-0.7c0-0.7-0.3-1.1-0.8-1.1C36.9,51.1,36.6,51.4,36.6,52.2z"/>
	<path class="st1" d="M42.2,52.9v-2.5H43v6h-0.8v-2.8h-1.6v2.8h-0.8v-6h0.8v2.5H42.2z"/>
	<path class="st1" d="M45.6,56.4h-0.9v-5.3h-1.3v-0.8h3.5v0.8h-1.3V56.4z"/>
	<path class="st1" d="M49.3,50.3c0.9,0,1.3,0.6,1.3,1.7v2.8c0,1.2-0.4,1.8-1.3,1.8c-0.5,0-0.9-0.2-1.2-0.7v2.5h-0.8v-7.9h0.7l0,0.8
		C48.3,50.6,48.7,50.3,49.3,50.3z M49.8,54.7v-2.6c0-0.7-0.2-1-0.7-1c-0.3,0-0.5,0.1-0.7,0.4c-0.2,0.2-0.2,0.6-0.2,1v2
		c0,0.4,0.1,0.8,0.2,1c0.2,0.2,0.4,0.4,0.7,0.4C49.6,55.8,49.8,55.4,49.8,54.7z"/>
	<path class="st1" d="M53.6,54.8l1.7-4.4h0.9v6h-0.8v-4.4l-1.7,4.4h-0.9v-6h0.8V54.8z"/>
	<path class="st1" d="M59.3,55l1.2-4.6h1.2v6h-0.8v-5l-1.3,5H59l-1.3-5v5h-0.8v-6h1.2L59.3,55z"/>
	<path class="st1" d="M64,50.3c0.5,0,1,0.2,1.2,0.5s0.4,0.8,0.4,1.4v1.3h-2.5v1.1c0,0.7,0.3,1.1,0.8,1.1c0.6,0,0.8-0.4,0.8-1.1v-0.2
		h0.8v0.1c0,0.6-0.1,1.1-0.4,1.4s-0.7,0.5-1.2,0.5c-0.5,0-1-0.2-1.2-0.5c-0.3-0.3-0.4-0.8-0.4-1.4v-2.4c0-0.6,0.1-1.1,0.4-1.4
		C63.1,50.5,63.5,50.3,64,50.3z M63.2,52.2v0.7h1.7v-0.7c0-0.7-0.3-1.1-0.8-1.1C63.5,51.1,63.2,51.4,63.2,52.2z"/>
	<path class="st1" d="M68.8,52.9v-2.5h0.8v6h-0.8v-2.8h-1.6v2.8h-0.8v-6h0.8v2.5H68.8z"/>
	<path class="st1" d="M71.2,54.8l1.7-4.4h0.9v6H73v-4.4l-1.7,4.4h-0.9v-6h0.8V54.8z"/>
	<path class="st1" d="M76,50.4h3.3v6h-0.9v-5.3h-1.6v5.3H76V50.4z"/>
	<path class="st1" d="M82,50.3c0.9,0,1.3,0.6,1.3,1.7v2.8c0,1.2-0.4,1.8-1.3,1.8c-0.5,0-0.9-0.2-1.2-0.7v2.5H80v-7.9h0.7l0,0.8
		C81,50.6,81.4,50.3,82,50.3z M82.5,54.7v-2.6c0-0.7-0.2-1-0.7-1c-0.3,0-0.5,0.1-0.7,0.4c-0.2,0.2-0.2,0.6-0.2,1v2
		c0,0.4,0.1,0.8,0.2,1c0.2,0.2,0.4,0.4,0.7,0.4C82.2,55.8,82.5,55.4,82.5,54.7z"/>
	<path class="st1" d="M85.5,56.6c-0.5,0-0.9-0.2-1.2-0.5c-0.3-0.3-0.4-0.8-0.4-1.4v-2.4c0-0.6,0.1-1.1,0.4-1.4
		c0.3-0.3,0.7-0.5,1.2-0.5c0.5,0,0.9,0.2,1.2,0.5s0.4,0.8,0.4,1.4v2.4c0,0.6-0.1,1.1-0.4,1.4S86.1,56.6,85.5,56.6z M85.5,55.8
		c0.5,0,0.8-0.4,0.8-1.1v-2.5c0-0.7-0.3-1.1-0.8-1.1c-0.5,0-0.8,0.4-0.8,1.1v2.5C84.7,55.4,85,55.8,85.5,55.8z"/>
	<path class="st1" d="M90.5,58.3h-0.8v-1.9h-0.2c-1.2,0-1.8-0.6-1.8-1.9v-2.1c0-1.3,0.6-1.9,1.8-1.9h0.2V48h0.8v2.4h0.2
		c1.2,0,1.8,0.6,1.8,1.9v2.1c0,1.3-0.6,1.9-1.8,1.9h-0.2V58.3z M89.5,55.7h0.2v-4.5h-0.2c-0.6,0-0.9,0.4-0.9,1.1v2.4
		c0,0.4,0.1,0.6,0.2,0.8S89.1,55.7,89.5,55.7z M90.5,51.2v4.5h0.2c0.3,0,0.5-0.1,0.7-0.2c0.2-0.2,0.2-0.4,0.2-0.8v-2.4
		c0-0.7-0.3-1.1-1-1.1H90.5z"/>
	<path class="st1" d="M94.7,50.3c0.5,0,1,0.2,1.2,0.5s0.4,0.8,0.4,1.4v1.3h-2.5v1.1c0,0.7,0.3,1.1,0.8,1.1c0.6,0,0.8-0.4,0.8-1.1
		v-0.2h0.8v0.1c0,0.6-0.1,1.1-0.4,1.4s-0.7,0.5-1.2,0.5c-0.5,0-1-0.2-1.2-0.5c-0.3-0.3-0.4-0.8-0.4-1.4v-2.4c0-0.6,0.1-1.1,0.4-1.4
		C93.7,50.5,94.1,50.3,94.7,50.3z M93.9,52.2v0.7h1.7v-0.7c0-0.7-0.3-1.1-0.8-1.1C94.1,51.1,93.9,51.4,93.9,52.2z"/>
	<path class="st1" d="M98.5,56.6c-0.5,0-0.9-0.2-1.2-0.5c-0.3-0.3-0.4-0.8-0.4-1.4v-2.4c0-0.6,0.1-1.1,0.4-1.4
		c0.3-0.3,0.7-0.5,1.2-0.5c0.5,0,0.9,0.2,1.2,0.5c0.3,0.3,0.4,0.8,0.4,1.4v0.3h-0.8v-0.3c0-0.7-0.3-1-0.8-1c-0.5,0-0.8,0.3-0.8,1
		v2.6c0,0.7,0.3,1,0.8,1c0.5,0,0.8-0.3,0.8-1v-0.5h0.8v0.4c0,0.6-0.1,1.1-0.4,1.4C99.4,56.4,99,56.6,98.5,56.6z"/>
	<path class="st1" d="M102.2,56.6c-0.5,0-0.9-0.2-1.2-0.5s-0.4-0.8-0.4-1.4v-2.4c0-0.6,0.1-1.1,0.4-1.4s0.7-0.5,1.2-0.5
		c0.5,0,0.9,0.2,1.2,0.5s0.4,0.8,0.4,1.4v0.3H103v-0.3c0-0.7-0.3-1-0.8-1c-0.5,0-0.8,0.3-0.8,1v2.6c0,0.7,0.3,1,0.8,1
		c0.5,0,0.8-0.3,0.8-1v-0.5h0.8v0.4c0,0.6-0.1,1.1-0.4,1.4S102.7,56.6,102.2,56.6z"/>
	<path class="st1" d="M105.9,56.6c-0.5,0-0.9-0.2-1.2-0.5s-0.4-0.8-0.4-1.4v-2.4c0-0.6,0.1-1.1,0.4-1.4s0.7-0.5,1.2-0.5
		c0.5,0,0.9,0.2,1.2,0.5c0.3,0.3,0.4,0.8,0.4,1.4v2.4c0,0.6-0.1,1.1-0.4,1.4C106.8,56.4,106.4,56.6,105.9,56.6z M105.9,55.8
		c0.5,0,0.8-0.4,0.8-1.1v-2.5c0-0.7-0.3-1.1-0.8-1.1c-0.5,0-0.8,0.4-0.8,1.1v2.5C105.1,55.4,105.3,55.8,105.9,55.8z"/>
	<path class="st1" d="M110.2,50.3c0.9,0,1.3,0.6,1.3,1.7v2.8c0,1.2-0.4,1.8-1.3,1.8c-0.5,0-0.9-0.2-1.2-0.7v2.5h-0.8v-7.9h0.7l0,0.8
		C109.1,50.6,109.6,50.3,110.2,50.3z M110.6,54.7v-2.6c0-0.7-0.2-1-0.7-1c-0.3,0-0.5,0.1-0.7,0.4c-0.2,0.2-0.2,0.6-0.2,1v2
		c0,0.4,0.1,0.8,0.2,1c0.2,0.2,0.4,0.4,0.7,0.4C110.4,55.8,110.6,55.4,110.6,54.7z"/>
	<path class="st1" d="M115.3,56.4h-0.8c0-0.2-0.1-0.4-0.1-0.8c-0.2,0.6-0.7,0.9-1.3,0.9c-0.4,0-0.7-0.1-0.9-0.4
		c-0.2-0.3-0.3-0.6-0.3-1.1c0-0.5,0.1-0.8,0.3-1.1c0.2-0.3,0.6-0.6,1.1-0.8c0.5-0.2,0.8-0.4,0.9-0.5c0.1-0.1,0.2-0.3,0.2-0.5V52
		c0-0.6-0.2-0.9-0.7-0.9c-0.2,0-0.4,0.1-0.6,0.2c-0.1,0.2-0.2,0.4-0.2,0.7v0.2H112V52c0-0.6,0.1-1,0.4-1.3c0.3-0.3,0.7-0.5,1.2-0.5
		c1,0,1.6,0.6,1.6,1.8v2.7C115.2,55.5,115.2,56.1,115.3,56.4z M113.4,55.8c0.3,0,0.5-0.1,0.7-0.4s0.2-0.6,0.2-1v-1.2
		c-0.1,0.1-0.4,0.3-0.8,0.6c-0.5,0.3-0.8,0.7-0.8,1.2C112.7,55.5,113,55.8,113.4,55.8z"/>
	<path class="st1" d="M118.2,54.3l2-6.3h0.9v8.4h-0.8v-6.3l-2,6.3h-0.9V48h0.8V54.3z"/>
	<path class="st1" d="M122.7,56.4h-0.8v-6h2.6v0.8h-1.7V56.4z"/>
	<path class="st1" d="M126.3,56.6c-0.5,0-0.9-0.2-1.2-0.5s-0.4-0.8-0.4-1.4v-2.4c0-0.6,0.1-1.1,0.4-1.4s0.7-0.5,1.2-0.5
		c0.5,0,0.9,0.2,1.2,0.5c0.3,0.3,0.4,0.8,0.4,1.4v2.4c0,0.6-0.1,1.1-0.4,1.4C127.3,56.4,126.9,56.6,126.3,56.6z M126.3,55.8
		c0.5,0,0.8-0.4,0.8-1.1v-2.5c0-0.7-0.3-1.1-0.8-1.1c-0.5,0-0.8,0.4-0.8,1.1v2.5C125.5,55.4,125.8,55.8,126.3,55.8z"/>
	<path class="st1" d="M130.6,50.3c0.9,0,1.3,0.6,1.3,1.7v2.8c0,1.2-0.4,1.8-1.3,1.8c-0.5,0-0.9-0.2-1.2-0.7v2.5h-0.8v-7.9h0.7l0,0.8
		C129.6,50.6,130,50.3,130.6,50.3z M131.1,54.7v-2.6c0-0.7-0.2-1-0.7-1c-0.3,0-0.5,0.1-0.7,0.4c-0.2,0.2-0.2,0.6-0.2,1v2
		c0,0.4,0.1,0.8,0.2,1c0.2,0.2,0.4,0.4,0.7,0.4C130.9,55.8,131.1,55.4,131.1,54.7z"/>
	<path class="st1" d="M133.3,56.4h-0.9c0.1-0.2,0.1-0.5,0.1-0.8V55c0-0.5,0.1-0.8,0.2-1.1c0.1-0.2,0.4-0.4,0.7-0.5v0
		c-0.6-0.2-0.9-0.6-0.9-1.4c0-0.6,0.1-1,0.4-1.2c0.3-0.3,0.7-0.4,1.3-0.4h1.7v6h-0.8v-2.5h-0.7c-0.4,0-0.6,0.1-0.8,0.2
		c-0.2,0.2-0.2,0.4-0.2,0.8v0.7C133.4,56,133.3,56.2,133.3,56.4z M134.4,53.1h0.7v-2h-0.8c-0.3,0-0.6,0.1-0.7,0.2s-0.2,0.4-0.2,0.7
		v0c0,0.3,0.1,0.6,0.3,0.7S134.1,53.1,134.4,53.1z"/>
	<path class="st1" d="M140.1,56.4h-1.8V48h1.7c0.6,0,1.1,0.2,1.3,0.5c0.3,0.3,0.4,0.8,0.4,1.4v0.3c0,0.9-0.3,1.5-0.9,1.7v0
		c0.7,0.2,1,0.8,1,1.8v0.7C141.9,55.8,141.3,56.4,140.1,56.4z M139.1,48.9v2.7h0.7c0.4,0,0.6-0.1,0.8-0.3s0.2-0.5,0.2-0.9v-0.4
		c0-0.4-0.1-0.7-0.2-0.9c-0.1-0.2-0.4-0.3-0.7-0.3H139.1z M139.1,52.5v3.1h1c0.3,0,0.6-0.1,0.7-0.3c0.1-0.2,0.2-0.5,0.2-0.9v-0.7
		c0-0.5-0.1-0.8-0.3-1c-0.2-0.2-0.5-0.3-0.9-0.3H139.1z"/>
	<path class="st1" d="M142.5,56.5c-0.2,0-0.3,0-0.4-0.1v-0.8c0.1,0,0.2,0,0.3,0c0.2,0,0.3-0.1,0.4-0.2s0.1-0.3,0.2-0.7l0.2-4.4h2.9
		v6h-0.9v-5.2H144l-0.2,3.7c0,0.5-0.1,0.9-0.4,1.2S142.9,56.5,142.5,56.5z"/>
	<path class="st1" d="M150,56.4h-0.8c0-0.2-0.1-0.4-0.1-0.8c-0.2,0.6-0.7,0.9-1.3,0.9c-0.4,0-0.7-0.1-0.9-0.4
		c-0.2-0.3-0.3-0.6-0.3-1.1c0-0.5,0.1-0.8,0.3-1.1c0.2-0.3,0.6-0.6,1.1-0.8c0.5-0.2,0.8-0.4,0.9-0.5c0.1-0.1,0.2-0.3,0.2-0.5V52
		c0-0.6-0.2-0.9-0.7-0.9c-0.2,0-0.4,0.1-0.6,0.2c-0.1,0.2-0.2,0.4-0.2,0.7v0.2h-0.8V52c0-0.6,0.1-1,0.4-1.3c0.3-0.3,0.7-0.5,1.2-0.5
		c1,0,1.6,0.6,1.6,1.8v2.7C149.9,55.5,149.9,56.1,150,56.4z M148.1,55.8c0.3,0,0.5-0.1,0.7-0.4s0.2-0.6,0.2-1v-1.2
		c-0.1,0.1-0.4,0.3-0.8,0.6c-0.5,0.3-0.8,0.7-0.8,1.2C147.4,55.5,147.7,55.8,148.1,55.8z"/>
	<path class="st1" d="M154.2,50.4v5.3h0.5v1.9h-0.8v-1.1h-2.8v1.1h-0.8v-1.9h0.6c0.2-0.2,0.2-0.4,0.3-0.9l0.2-4.4H154.2z
		 M151.7,55.7h1.7v-4.5h-1.3l-0.2,3.6C152,55.2,151.9,55.5,151.7,55.7z"/>
	<path class="st1" d="M156,54.8l1.7-4.4h0.9v6h-0.8v-4.4l-1.7,4.4h-0.9v-6h0.8V54.8z"/>
	<path class="st1" d="M161.7,55l1.2-4.6h1.2v6h-0.8v-5l-1.3,5h-0.7l-1.3-5v5h-0.8v-6h1.2L161.7,55z"/>
	<path class="st1" d="M165.6,54.8l1.7-4.4h0.9v6h-0.8v-4.4l-1.7,4.4h-0.9v-6h0.8V54.8z"/>
	<path class="st1" d="M171,50.3c0.9,0,1.3,0.6,1.3,1.7v2.8c0,1.2-0.4,1.8-1.3,1.8c-0.5,0-0.9-0.2-1.2-0.7v2.5H169v-7.9h0.7l0,0.8
		C169.9,50.6,170.4,50.3,171,50.3z M171.4,54.7v-2.6c0-0.7-0.2-1-0.7-1c-0.3,0-0.5,0.1-0.7,0.4c-0.2,0.2-0.2,0.6-0.2,1v2
		c0,0.4,0.1,0.8,0.2,1c0.2,0.2,0.4,0.4,0.7,0.4C171.2,55.8,171.4,55.4,171.4,54.7z"/>
	<path class="st1" d="M174.5,56.6c-0.5,0-0.9-0.2-1.2-0.5s-0.4-0.8-0.4-1.4v-2.4c0-0.6,0.1-1.1,0.4-1.4s0.7-0.5,1.2-0.5
		c0.5,0,0.9,0.2,1.2,0.5c0.3,0.3,0.4,0.8,0.4,1.4v2.4c0,0.6-0.1,1.1-0.4,1.4C175.4,56.4,175,56.6,174.5,56.6z M174.5,55.8
		c0.5,0,0.8-0.4,0.8-1.1v-2.5c0-0.7-0.3-1.1-0.8-1.1c-0.5,0-0.8,0.4-0.8,1.1v2.5C173.7,55.4,173.9,55.8,174.5,55.8z"/>
	<path class="st1" d="M178.5,56.4h-1.8v-6h1.7c0.6,0,1,0.1,1.3,0.4c0.3,0.2,0.4,0.6,0.4,1.1V52c0,0.7-0.3,1.2-0.8,1.3v0
		c0.6,0.2,0.9,0.6,0.9,1.4v0.1C180.2,55.9,179.7,56.4,178.5,56.4z M177.6,51.2V53h0.7c0.3,0,0.6-0.1,0.7-0.2
		c0.2-0.1,0.2-0.4,0.2-0.7V52c0-0.3-0.1-0.5-0.2-0.6c-0.1-0.1-0.4-0.2-0.6-0.2H177.6z M177.6,53.8v1.9h0.9c0.3,0,0.5-0.1,0.7-0.2
		c0.1-0.1,0.2-0.4,0.2-0.7v-0.1c0-0.3-0.1-0.5-0.2-0.7c-0.2-0.1-0.4-0.2-0.8-0.2H177.6z"/>
	<path class="st1" d="M181.5,54.8l1.7-4.4h0.9v6h-0.8v-4.4l-1.7,4.4h-0.9v-6h0.8V54.8z"/>
	<path class="st1" d="M187.1,52.1v-1.7h0.8v6h-0.8v-2.9c-0.3,0.4-0.6,0.7-1.1,0.7c-0.9,0-1.3-0.6-1.3-1.8v-2.1h0.9v2
		c0,0.7,0.2,1.1,0.7,1.1c0.3,0,0.5-0.1,0.6-0.4C187,52.8,187.1,52.5,187.1,52.1z"/>
	<path class="st1" d="M191.9,56.4h-0.8c0-0.2-0.1-0.4-0.1-0.8c-0.2,0.6-0.7,0.9-1.3,0.9c-0.4,0-0.7-0.1-0.9-0.4
		c-0.2-0.3-0.3-0.6-0.3-1.1c0-0.5,0.1-0.8,0.3-1.1c0.2-0.3,0.6-0.6,1.1-0.8c0.5-0.2,0.8-0.4,0.9-0.5c0.1-0.1,0.2-0.3,0.2-0.5V52
		c0-0.6-0.2-0.9-0.7-0.9c-0.2,0-0.4,0.1-0.6,0.2c-0.1,0.2-0.2,0.4-0.2,0.7v0.2h-0.8V52c0-0.6,0.1-1,0.4-1.3c0.3-0.3,0.7-0.5,1.2-0.5
		c1,0,1.6,0.6,1.6,1.8v2.7C191.8,55.5,191.8,56.1,191.9,56.4z M190,55.8c0.3,0,0.5-0.1,0.7-0.4s0.2-0.6,0.2-1v-1.2
		c-0.1,0.1-0.4,0.3-0.8,0.6c-0.5,0.3-0.8,0.7-0.8,1.2C189.3,55.5,189.5,55.8,190,55.8z"/>
	<path class="st1" d="M197,56.4h-0.9v-0.9h-0.4c-0.6,0-1.1-0.2-1.5-0.6c-0.3-0.4-0.5-0.9-0.5-1.7v-2.1c0-1.5,0.7-2.2,2-2.2h0.4V48
		h0.9V49h0.4c1.3,0,1.9,0.7,1.9,2.2v2.1c0,0.7-0.2,1.3-0.5,1.7c-0.3,0.4-0.8,0.6-1.4,0.6H197V56.4z M195.7,54.6h0.4v-4.8h-0.4
		c-0.7,0-1.1,0.4-1.1,1.3v2.2C194.7,54.2,195,54.6,195.7,54.6z M197,49.8v4.8h0.4c0.7,0,1.1-0.4,1.1-1.3v-2.2c0-0.9-0.4-1.3-1.1-1.3
		H197z"/>
	<path class="st1" d="M201.4,50.3c0.5,0,1,0.2,1.2,0.5c0.3,0.3,0.4,0.8,0.4,1.4v1.3h-2.5v1.1c0,0.7,0.3,1.1,0.8,1.1
		c0.6,0,0.8-0.4,0.8-1.1v-0.2h0.8v0.1c0,0.6-0.1,1.1-0.4,1.4c-0.3,0.3-0.7,0.5-1.2,0.5c-0.5,0-1-0.2-1.2-0.5
		c-0.3-0.3-0.4-0.8-0.4-1.4v-2.4c0-0.6,0.1-1.1,0.4-1.4S200.8,50.3,201.4,50.3z M200.6,52.2v0.7h1.7v-0.7c0-0.7-0.3-1.1-0.8-1.1
		C200.8,51.1,200.6,51.4,200.6,52.2z"/>
	<path class="st1" d="M207.2,50.4v5.3h0.5v1.9h-0.8v-1.1h-2.8v1.1h-0.8v-1.9h0.6c0.2-0.2,0.2-0.4,0.3-0.9l0.2-4.4H207.2z
		 M204.7,55.7h1.7v-4.5h-1.3l-0.2,3.6C205,55.2,204.8,55.5,204.7,55.7z"/>
	<path class="st1" d="M209.7,56.6c-0.5,0-0.9-0.2-1.2-0.5s-0.4-0.8-0.4-1.4v-2.4c0-0.6,0.1-1.1,0.4-1.4s0.7-0.5,1.2-0.5
		c0.5,0,0.9,0.2,1.2,0.5c0.3,0.3,0.4,0.8,0.4,1.4v2.4c0,0.6-0.1,1.1-0.4,1.4C210.7,56.4,210.2,56.6,209.7,56.6z M209.7,55.8
		c0.5,0,0.8-0.4,0.8-1.1v-2.5c0-0.7-0.3-1.1-0.8-1.1c-0.5,0-0.8,0.4-0.8,1.1v2.5C208.9,55.4,209.2,55.8,209.7,55.8z"/>
	<path class="st1" d="M214,50.3c0.9,0,1.3,0.6,1.3,1.7v2.8c0,1.2-0.4,1.8-1.3,1.8c-0.5,0-0.9-0.2-1.2-0.7v2.5H212v-7.9h0.7l0,0.8
		C213,50.6,213.4,50.3,214,50.3z M214.5,54.7v-2.6c0-0.7-0.2-1-0.7-1c-0.3,0-0.5,0.1-0.7,0.4c-0.2,0.2-0.2,0.6-0.2,1v2
		c0,0.4,0.1,0.8,0.2,1c0.2,0.2,0.4,0.4,0.7,0.4C214.2,55.8,214.5,55.4,214.5,54.7z"/>
	<path class="st1" d="M217.5,56.6c-0.5,0-0.9-0.2-1.2-0.5s-0.4-0.8-0.4-1.4v-2.4c0-0.6,0.1-1.1,0.4-1.4s0.7-0.5,1.2-0.5
		c0.5,0,0.9,0.2,1.2,0.5c0.3,0.3,0.4,0.8,0.4,1.4v2.4c0,0.6-0.1,1.1-0.4,1.4C218.5,56.4,218.1,56.6,217.5,56.6z M217.5,55.8
		c0.5,0,0.8-0.4,0.8-1.1v-2.5c0-0.7-0.3-1.1-0.8-1.1c-0.5,0-0.8,0.4-0.8,1.1v2.5C216.7,55.4,217,55.8,217.5,55.8z"/>
	<path class="st1" d="M221.6,56.4h-1.8v-6h1.7c0.6,0,1,0.1,1.3,0.4c0.3,0.2,0.4,0.6,0.4,1.1V52c0,0.7-0.3,1.2-0.8,1.3v0
		c0.6,0.2,0.9,0.6,0.9,1.4v0.1C223.3,55.9,222.7,56.4,221.6,56.4z M220.6,51.2V53h0.7c0.3,0,0.6-0.1,0.7-0.2
		c0.2-0.1,0.2-0.4,0.2-0.7V52c0-0.3-0.1-0.5-0.2-0.6c-0.1-0.1-0.4-0.2-0.6-0.2H220.6z M220.6,53.8v1.9h0.9c0.3,0,0.5-0.1,0.7-0.2
		c0.1-0.1,0.2-0.4,0.2-0.7v-0.1c0-0.3-0.1-0.5-0.2-0.7c-0.2-0.1-0.4-0.2-0.8-0.2H220.6z"/>
	<path class="st1" d="M227,56.4h-0.8c0-0.2-0.1-0.4-0.1-0.8c-0.2,0.6-0.7,0.9-1.3,0.9c-0.4,0-0.7-0.1-0.9-0.4
		c-0.2-0.3-0.3-0.6-0.3-1.1c0-0.5,0.1-0.8,0.3-1.1c0.2-0.3,0.6-0.6,1.1-0.8c0.5-0.2,0.8-0.4,0.9-0.5c0.1-0.1,0.2-0.3,0.2-0.5V52
		c0-0.6-0.2-0.9-0.7-0.9c-0.2,0-0.4,0.1-0.6,0.2c-0.1,0.2-0.2,0.4-0.2,0.7v0.2h-0.8V52c0-0.6,0.1-1,0.4-1.3c0.3-0.3,0.7-0.5,1.2-0.5
		c1,0,1.6,0.6,1.6,1.8v2.7C226.9,55.5,226.9,56.1,227,56.4z M225.1,55.8c0.3,0,0.5-0.1,0.7-0.4s0.2-0.6,0.2-1v-1.2
		c-0.1,0.1-0.4,0.3-0.8,0.6c-0.5,0.3-0.8,0.7-0.8,1.2C224.4,55.5,224.6,55.8,225.1,55.8z"/>
</g>
</svg>
